<svg width="49" height="48" viewBox="0 0 49 48" fill="none" xmlns="http://www.w3.org/2000/svg">
  <rect x="1.20117" y="0.499023" width="47" height="47" rx="23.5" fill="white"/>
  <rect x="1.20117" y="0.499023" width="47" height="47" rx="23.5" stroke="#E5E7EB"/>
  <path d="M24.7 16.5C20.3 16.5 16.7 20.1 16.7 24.5C16.7 28.2 19.3 31.1 22.7 31.9C22.9 32 23.1 31.9 23.1 31.7V28.8C20.9 29.3 20.3 28 20.3 28C19.9 27.1 19.3 26.8 19.3 26.8C18.5 26.2 19.4 26.2 19.4 26.2C20.3 26.3 20.8 27.2 20.8 27.2C21.6 28.4 22.8 28 23.3 27.8C23.4 27.1 23.7 26.7 24 26.5C22 26.3 19.9 25.6 19.9 22.5C19.9 21.6 20.3 20.8 20.9 20.2C20.8 19.9 20.4 18.8 21 17.4C21 17.4 21.8 17.2 23.1 18.1C23.8 17.9 24.5 17.8 25.2 17.8C25.9 17.8 26.6 17.9 27.3 18.1C28.6 17.2 29.4 17.4 29.4 17.4C30 18.8 29.6 19.9 29.5 20.2C30.1 20.8 30.5 21.6 30.5 22.5C30.5 25.6 28.4 26.3 26.4 26.5C26.8 26.7 27.1 27.1 27.2 27.8C27.6 28 28.8 28.4 29.6 27.2C29.6 27.2 30.1 26.3 31 26.2C31 26.2 31.9 26.2 31.1 26.8C30.5 27.1 29.9 28 29.4 28.8V31.7C29.4 31.9 29.6 32 29.8 31.9C33.2 31.1 35.8 28.2 35.8 24.5C35.7 20.1 32.1 16.5 27.7 16.5H24.7Z" fill="#24292F"/>
</svg>
